<svg width="24" height="24" viewBox="0 0 24 24" fill="none" xmlns="http://www.w3.org/2000/svg">
<path d="M8.46975 8.34075C8.1765 8.0475 8.1765 7.5735 8.46975 7.28025C8.763 6.987 9.237 6.987 9.53025 7.28025L11.25 9V3.75C11.25 3.33525 11.5852 3 12 3C12.4148 3 12.75 3.33525 12.75 3.75V9L14.4698 7.28025C14.763 6.987 15.237 6.987 15.5303 7.28025C15.8235 7.5735 15.8235 8.0475 15.5303 8.34075L13.0605 10.8105C12.7702 11.1007 12.3885 11.247 12.0068 11.2485L12 11.25L11.9932 11.2485C11.6115 11.247 11.2298 11.1007 10.9395 10.8105L8.46975 8.34075ZM18.75 12H16.5C15.6727 12 15 12.6727 15 13.5C15 14.3273 14.3273 15 13.5 15H10.5C9.67275 15 9 14.3273 9 13.5C9 12.6727 8.32725 12 7.5 12H5.25C4.0095 12 3 13.0095 3 14.25V17.25C3 19.3177 4.68225 21 6.75 21H17.25C19.3177 21 21 19.3177 21 17.25V14.25C21 13.0095 19.9905 12 18.75 12Z" fill="#F7F7F7"/>
</svg>
