<svg width="22" height="22" viewBox="0 0 22 22" fill="none" xmlns="http://www.w3.org/2000/svg">
<g clip-path="url(#clip0_175_1106)">
<path d="M2.74967 22H12.833C13.5617 21.9978 14.2599 21.7074 14.7751 21.1921C15.2904 20.6769 15.5808 19.9787 15.583 19.25V13.75H7.33301C6.60366 13.75 5.90419 13.4603 5.38846 12.9445C4.87274 12.4288 4.58301 11.7293 4.58301 11C4.58301 10.2707 4.87274 9.57118 5.38846 9.05546C5.90419 8.53973 6.60366 8.25 7.33301 8.25H15.583V2.75C15.5808 2.02132 15.2904 1.32311 14.7751 0.807859C14.2599 0.292606 13.5617 0.00217628 12.833 0H2.74967C2.021 0.00217628 1.32279 0.292606 0.807534 0.807859C0.29228 1.32311 0.00185013 2.02132 -0.000326157 2.75V19.25C0.00185013 19.9787 0.29228 20.6769 0.807534 21.1921C1.32279 21.7074 2.021 21.9978 2.74967 22Z" fill="#A2A9B0"/>
<path d="M18.8744 10.0833H7.33361C7.09049 10.0833 6.85734 10.1799 6.68543 10.3518C6.51352 10.5237 6.41694 10.7569 6.41694 11C6.41694 11.2431 6.51352 11.4763 6.68543 11.6482C6.85734 11.8201 7.09049 11.9167 7.33361 11.9167H18.8744L17.6828 13.0992C17.5102 13.2718 17.4132 13.5059 17.4132 13.75C17.4132 13.9941 17.5102 14.2282 17.6828 14.4008C17.8554 14.5734 18.0895 14.6704 18.3336 14.6704C18.5777 14.6704 18.8118 14.5734 18.9844 14.4008L21.7344 11.6508C21.9 11.4746 21.9922 11.2418 21.9922 11C21.9922 10.7582 21.9 10.5254 21.7344 10.3492L18.9844 7.59916C18.8089 7.43214 18.5759 7.339 18.3336 7.339C18.0913 7.339 17.8583 7.43214 17.6828 7.59916C17.511 7.77223 17.4147 8.00617 17.4147 8.24999C17.4147 8.49381 17.511 8.72775 17.6828 8.90083L18.8744 10.0833Z" fill="#DEDEE5"/>
</g>
<defs>
<clipPath id="clip0_175_1106">
<rect width="22" height="22" fill="white" transform="matrix(-1 0 0 -1 22 22)"/>
</clipPath>
</defs>
</svg>
