<svg width="19" height="19" viewBox="0 0 19 19" fill="none" xmlns="http://www.w3.org/2000/svg">
<path d="M3.49999 0.5H5.74999C7.40683 0.5 8.74998 1.84314 8.74998 3.49999V5.74999C8.74998 7.40683 7.40683 8.74998 5.74999 8.74998H3.49999C1.84314 8.75001 0.5 7.40687 0.5 5.74999V3.49999C0.5 1.84314 1.84314 0.5 3.49999 0.5Z" fill="#F7F7F7"/>
<path d="M13.25 0.5H15.5C17.1568 0.5 18.5 1.84314 18.5 3.49999V5.74999C18.5 7.40683 17.1568 8.74998 15.5 8.74998H13.25C11.5931 8.74998 10.25 7.40683 10.25 5.74999V3.49999C10.25 1.84314 11.5931 0.5 13.25 0.5Z" fill="#F7F7F7"/>
<path d="M3.49999 10.25H5.74999C7.40683 10.25 8.74998 11.5931 8.74998 13.25V15.5C8.74998 17.1568 7.40683 18.5 5.74999 18.5H3.49999C1.84314 18.5 0.5 17.1569 0.5 15.5V13.25C0.5 11.5931 1.84314 10.25 3.49999 10.25Z" fill="#F7F7F7"/>
<path d="M13.25 10.25H15.5C17.1568 10.25 18.5 11.5931 18.5 13.25V15.5C18.5 17.1569 17.1568 18.5 15.5 18.5H13.25C11.5931 18.5 10.25 17.1569 10.25 15.5V13.25C10.25 11.5931 11.5931 10.25 13.25 10.25Z" fill="#F7F7F7"/>
</svg>
