<svg width="24" height="24" viewBox="0 0 24 24" fill="none" xmlns="http://www.w3.org/2000/svg">
<path d="M12 3C10.22 3 8.47991 3.52784 6.99987 4.51677C5.51983 5.50571 4.36628 6.91131 3.68509 8.55585C3.0039 10.2004 2.82567 12.01 3.17294 13.7558C3.5202 15.5016 4.37737 17.1053 5.63604 18.364C6.89471 19.6226 8.49836 20.4798 10.2442 20.8271C11.99 21.1743 13.7996 20.9961 15.4442 20.3149C17.0887 19.6337 18.4943 18.4802 19.4832 17.0001C20.4722 15.5201 21 13.78 21 12C20.9974 9.61384 20.0484 7.32616 18.3611 5.63889C16.6738 3.95162 14.3862 3.00258 12 3ZM12 15C11.451 15.0006 10.9208 14.7999 10.5098 14.436C10.2645 14.2177 10.032 14.0055 9.87975 13.8532L7.725 11.7352C7.5924 11.5941 7.51953 11.4071 7.52166 11.2135C7.52379 11.0198 7.60075 10.8345 7.73643 10.6963C7.87211 10.5581 8.05599 10.4777 8.24957 10.472C8.44316 10.4663 8.63144 10.5358 8.775 10.6657L10.935 12.7875C11.076 12.9277 11.286 13.1182 11.5043 13.3125C11.6413 13.4334 11.8177 13.5 12.0004 13.5C12.1831 13.5 12.3595 13.4334 12.4965 13.3125C12.714 13.119 12.924 12.9285 13.0605 12.7927L15.225 10.6657C15.2942 10.5921 15.3775 10.5332 15.47 10.4926C15.5626 10.452 15.6623 10.4304 15.7634 10.4293C15.8644 10.4282 15.9646 10.4475 16.058 10.4861C16.1514 10.5247 16.236 10.5817 16.3068 10.6539C16.3776 10.726 16.4331 10.8116 16.4699 10.9057C16.5068 10.9998 16.5243 11.1003 16.5213 11.2013C16.5183 11.3023 16.495 11.4017 16.4527 11.4934C16.4103 11.5852 16.3499 11.6674 16.275 11.7352L14.1158 13.857C13.9658 14.007 13.7355 14.217 13.491 14.4337C13.0802 14.7988 12.5496 15.0003 12 15Z" fill="#F7F7F7"/>
</svg>
