<?xml version="1.0" encoding="UTF-8"?>
<svg version="1.1" xmlns="http://www.w3.org/2000/svg" width="1024" height="1024">
<path d="M0 0 C337.92 0 675.84 0 1024 0 C1024 337.92 1024 675.84 1024 1024 C686.08 1024 348.16 1024 0 1024 C0 686.08 0 348.16 0 0 Z " fill="#FEFEFE" transform="translate(0,0)"/>
<path d="M0 0 C25.38270801 21.57131651 40.69575254 52.08523796 44.18481445 85.18408203 C44.61619813 91.22562403 44.5774231 97.28573728 44.56640625 103.33984375 C44.56513733 104.05431671 44.56386841 104.76878967 44.56256104 105.50491333 C44.35975571 165.39366108 16.26009365 225.96277263 -24.42578125 269.53125 C-26.24580343 271.49700349 -27.99357956 273.49569802 -29.73828125 275.52734375 C-34.2333689 280.67888926 -39.04001953 285.50528391 -43.87109375 290.33984375 C-44.74894531 291.22994141 -45.62679687 292.12003906 -46.53125 293.03710938 C-51.77666056 298.29403987 -57.18862355 303.13193084 -62.98950195 307.76708984 C-65.4691899 309.77909011 -67.84556101 311.86348715 -70.2109375 314.0078125 C-74.67539835 318.01621028 -79.36674303 321.64201734 -84.18359375 325.21484375 C-85.05346924 325.86291992 -85.92334473 326.51099609 -86.81958008 327.17871094 C-94.61822899 332.95760181 -102.5375421 338.53004545 -110.62109375 343.90234375 C-111.28641113 344.34497559 -111.95172852 344.78760742 -112.63720703 345.24365234 C-179.63061196 389.61342113 -269.28116967 432.88728988 -352.07763672 416.41357422 C-394.52001085 407.28205785 -431.27174305 383.54508728 -455.22070312 347.11669922 C-464.1329979 333.0242108 -470.4454408 317.90177678 -474.80859375 301.83984375 C-475.04666748 300.98567871 -475.28474121 300.13151367 -475.5300293 299.25146484 C-477.30059353 292.39634656 -478.28142689 285.49452473 -479.20825195 278.48657227 C-479.34504616 277.46728889 -479.48184036 276.44800552 -479.62277985 275.39783478 C-479.95773811 272.89962156 -480.29044791 270.40113075 -480.62109375 267.90234375 C-481.90260315 267.90678497 -483.18411255 267.9112262 -484.50445557 267.915802 C-496.57043818 267.95631248 -508.63640703 267.98631105 -520.70244217 268.00596809 C-526.90598633 268.01641362 -533.10947567 268.03058694 -539.31298828 268.05322266 C-545.29761037 268.07492348 -551.28217968 268.08690658 -557.26683807 268.09209824 C-559.55223166 268.09579895 -561.8376223 268.10302532 -564.12299347 268.11380386 C-567.31936429 268.12828196 -570.51551583 268.13032322 -573.71191406 268.12939453 C-574.66065903 268.13658508 -575.60940399 268.14377563 -576.5868988 268.15118408 C-577.45905533 268.14843475 -578.33121185 268.14568542 -579.22979736 268.14285278 C-580.36360273 268.14561816 -580.36360273 268.14561816 -581.52031326 268.14843941 C-583.9813293 267.860144 -585.530677 267.2267906 -587.62109375 265.90234375 C-589.96278139 262.38981229 -590.11733052 261.03765019 -589.62109375 256.90234375 C-587.82115601 254.20243713 -586.53732075 252.36045725 -583.62109375 250.90234375 C-582.23995368 250.81071293 -580.85448169 250.78040532 -579.4703064 250.78208923 C-578.6008992 250.78071457 -577.731492 250.7793399 -576.83573914 250.77792358 C-575.87980362 250.78151886 -574.9238681 250.78511414 -573.93896484 250.78881836 C-572.93405502 250.78867233 -571.9291452 250.78852631 -570.89378357 250.78837585 C-567.56067777 250.78907446 -564.22762733 250.79686442 -560.89453125 250.8046875 C-558.58810456 250.80655187 -556.28167747 250.80797568 -553.97525024 250.80897522 C-547.89578158 250.81279893 -541.81633669 250.82262799 -535.73687744 250.8336792 C-529.53682782 250.84389645 -523.33677436 250.84847351 -517.13671875 250.85351562 C-504.96483329 250.86425037 -492.79296549 250.88132506 -480.62109375 250.90234375 C-480.52865135 249.48307083 -480.52865135 249.48307083 -480.43434143 248.03512573 C-480.30744179 246.1612468 -480.30744179 246.1612468 -480.17797852 244.24951172 C-480.09572525 243.01457977 -480.01347198 241.77964783 -479.9287262 240.5072937 C-479.5083999 235.58175579 -478.64222435 230.84479326 -477.55859375 226.02734375 C-477.34307861 225.05901611 -477.12756348 224.09068848 -476.90551758 223.09301758 C-470.55873811 195.79067728 -459.18227149 170.75171461 -444.62109375 146.90234375 C-445.81734375 146.84046875 -447.01359375 146.77859375 -448.24609375 146.71484375 C-462.34789977 145.09624023 -475.88067948 138.22692335 -484.9609375 127.30078125 C-489.01670173 121.44139481 -490.86830658 116.02001309 -490.62109375 108.90234375 C-491.4925 108.8765625 -492.36390625 108.85078125 -493.26171875 108.82421875 C-511.3125735 107.96465424 -526.28359141 101.26142272 -538.62109375 87.90234375 C-545.5820584 78.43543183 -547.72582239 69.60475988 -546.62109375 57.90234375 C-545.78188 55.07455829 -544.77940014 52.54190035 -543.49609375 49.890625 C-542.41969431 47.80674949 -542.41969431 47.80674949 -542.62109375 44.90234375 C-544.35021708 43.29731759 -544.35021708 43.29731759 -546.62109375 41.77734375 C-557.51452749 33.56458257 -566.14049985 21.72771685 -568.40625 7.98046875 C-568.47714844 7.2946875 -568.54804687 6.60890625 -568.62109375 5.90234375 C-568.70230469 5.1546875 -568.78351563 4.40703125 -568.8671875 3.63671875 C-569.18866778 -2.09147526 -567.94933927 -6.40739025 -564.62109375 -11.09765625 C-560.93359267 -15.07813687 -556.68204483 -17.73989217 -551.23854065 -18.37612915 C-549.98459755 -18.39611465 -549.98459755 -18.39611465 -548.70532227 -18.41650391 C-547.72971344 -18.43635345 -546.75410461 -18.456203 -545.74893188 -18.47665405 C-544.1407106 -18.49401108 -544.1407106 -18.49401108 -542.5 -18.51171875 C-541.34100189 -18.53126617 -540.18200378 -18.5508136 -538.98788452 -18.57095337 C-535.74088454 -18.62206034 -532.49394685 -18.66357653 -529.24674606 -18.69935608 C-527.17773772 -18.72272238 -525.108787 -18.74906806 -523.03982544 -18.77624512 C-511.56721531 -18.92494527 -500.09437158 -19.0184273 -488.62109375 -19.09765625 C-487.60855026 -19.10477127 -486.59600677 -19.11188629 -485.55278015 -19.11921692 C-470.84968986 -19.22116716 -456.14672462 -19.29054141 -441.44332886 -19.32781982 C-436.8690013 -19.339634 -432.29477029 -19.35790752 -427.7204895 -19.38165283 C-422.24831442 -19.40928105 -416.77630835 -19.42120474 -411.3040657 -19.42185593 C-409.27712313 -19.42442821 -407.25017926 -19.43203871 -405.22327805 -19.44524002 C-379.66376617 -19.60221977 -355.38684134 -15.32625293 -336.3828125 3.140625 C-327.66512521 11.85831229 -320.5538989 21.55757852 -313.33984375 31.52832031 C-311.73200147 33.74915246 -310.11516031 35.9631265 -308.49609375 38.17578125 C-307.57880759 39.43835224 -306.66210116 40.70134471 -305.74609375 41.96484375 C-305.32344238 42.54194092 -304.90079102 43.11903809 -304.46533203 43.71362305 C-301.62109375 47.67174385 -301.62109375 47.67174385 -301.62109375 49.90234375 C-261.723398 38.65093351 -224.58719042 23.28648378 -189.93359375 0.27734375 C-132.15827423 -38.04357575 -56.63414037 -46.82074221 0 0 Z " fill="#3589F4" transform="translate(814.62109375,304.09765625)"/>
<path d="M0 0 C25.38270801 21.57131651 40.69575254 52.08523796 44.18481445 85.18408203 C44.61619813 91.22562403 44.5774231 97.28573728 44.56640625 103.33984375 C44.56513733 104.05431671 44.56386841 104.76878967 44.56256104 105.50491333 C44.35975571 165.39366108 16.26009365 225.96277263 -24.42578125 269.53125 C-26.24580343 271.49700349 -27.99357956 273.49569802 -29.73828125 275.52734375 C-34.2333689 280.67888926 -39.04001953 285.50528391 -43.87109375 290.33984375 C-44.74894531 291.22994141 -45.62679687 292.12003906 -46.53125 293.03710938 C-51.77666056 298.29403987 -57.18862355 303.13193084 -62.98950195 307.76708984 C-65.4691899 309.77909011 -67.84556101 311.86348715 -70.2109375 314.0078125 C-74.67539835 318.01621028 -79.36674303 321.64201734 -84.18359375 325.21484375 C-85.05346924 325.86291992 -85.92334473 326.51099609 -86.81958008 327.17871094 C-94.61822899 332.95760181 -102.5375421 338.53004545 -110.62109375 343.90234375 C-111.28641113 344.34497559 -111.95172852 344.78760742 -112.63720703 345.24365234 C-179.63061196 389.61342113 -269.28116967 432.88728988 -352.07763672 416.41357422 C-394.52001085 407.28205785 -431.27174305 383.54508728 -455.22070312 347.11669922 C-464.1329979 333.0242108 -470.4454408 317.90177678 -474.80859375 301.83984375 C-475.04666748 300.98567871 -475.28474121 300.13151367 -475.5300293 299.25146484 C-477.30059353 292.39634656 -478.28142689 285.49452473 -479.20825195 278.48657227 C-479.34504616 277.46728889 -479.48184036 276.44800552 -479.62277985 275.39783478 C-479.95773811 272.89962156 -480.29044791 270.40113075 -480.62109375 267.90234375 C-481.90260315 267.90678497 -483.18411255 267.9112262 -484.50445557 267.915802 C-496.57043818 267.95631248 -508.63640703 267.98631105 -520.70244217 268.00596809 C-526.90598633 268.01641362 -533.10947567 268.03058694 -539.31298828 268.05322266 C-545.29761037 268.07492348 -551.28217968 268.08690658 -557.26683807 268.09209824 C-559.55223166 268.09579895 -561.8376223 268.10302532 -564.12299347 268.11380386 C-567.31936429 268.12828196 -570.51551583 268.13032322 -573.71191406 268.12939453 C-574.66065903 268.13658508 -575.60940399 268.14377563 -576.5868988 268.15118408 C-577.45905533 268.14843475 -578.33121185 268.14568542 -579.22979736 268.14285278 C-580.36360273 268.14561816 -580.36360273 268.14561816 -581.52031326 268.14843941 C-583.9813293 267.860144 -585.530677 267.2267906 -587.62109375 265.90234375 C-589.96278139 262.38981229 -590.11733052 261.03765019 -589.62109375 256.90234375 C-587.82115601 254.20243713 -586.53732075 252.36045725 -583.62109375 250.90234375 C-582.23995368 250.81071293 -580.85448169 250.78040532 -579.4703064 250.78208923 C-578.6008992 250.78071457 -577.731492 250.7793399 -576.83573914 250.77792358 C-575.87980362 250.78151886 -574.9238681 250.78511414 -573.93896484 250.78881836 C-572.93405502 250.78867233 -571.9291452 250.78852631 -570.89378357 250.78837585 C-567.56067777 250.78907446 -564.22762733 250.79686442 -560.89453125 250.8046875 C-558.58810456 250.80655187 -556.28167747 250.80797568 -553.97525024 250.80897522 C-547.89578158 250.81279893 -541.81633669 250.82262799 -535.73687744 250.8336792 C-529.53682782 250.84389645 -523.33677436 250.84847351 -517.13671875 250.85351562 C-504.96483329 250.86425037 -492.79296549 250.88132506 -480.62109375 250.90234375 C-480.52865135 249.48307083 -480.52865135 249.48307083 -480.43434143 248.03512573 C-480.30744179 246.1612468 -480.30744179 246.1612468 -480.17797852 244.24951172 C-480.09572525 243.01457977 -480.01347198 241.77964783 -479.9287262 240.5072937 C-479.5083999 235.58175579 -478.64222435 230.84479326 -477.55859375 226.02734375 C-477.34307861 225.05901611 -477.12756348 224.09068848 -476.90551758 223.09301758 C-470.55873811 195.79067728 -459.18227149 170.75171461 -444.62109375 146.90234375 C-445.81734375 146.84046875 -447.01359375 146.77859375 -448.24609375 146.71484375 C-462.34789977 145.09624023 -475.88067948 138.22692335 -484.9609375 127.30078125 C-489.01670173 121.44139481 -490.86830658 116.02001309 -490.62109375 108.90234375 C-491.4925 108.8765625 -492.36390625 108.85078125 -493.26171875 108.82421875 C-511.3125735 107.96465424 -526.28359141 101.26142272 -538.62109375 87.90234375 C-545.5820584 78.43543183 -547.72582239 69.60475988 -546.62109375 57.90234375 C-545.78188 55.07455829 -544.77940014 52.54190035 -543.49609375 49.890625 C-542.41969431 47.80674949 -542.41969431 47.80674949 -542.62109375 44.90234375 C-544.35021708 43.29731759 -544.35021708 43.29731759 -546.62109375 41.77734375 C-557.51452749 33.56458257 -566.14049985 21.72771685 -568.40625 7.98046875 C-568.47714844 7.2946875 -568.54804687 6.60890625 -568.62109375 5.90234375 C-568.70230469 5.1546875 -568.78351563 4.40703125 -568.8671875 3.63671875 C-569.18866778 -2.09147526 -567.94933927 -6.40739025 -564.62109375 -11.09765625 C-560.93359267 -15.07813687 -556.68204483 -17.73989217 -551.23854065 -18.37612915 C-549.98459755 -18.39611465 -549.98459755 -18.39611465 -548.70532227 -18.41650391 C-547.72971344 -18.43635345 -546.75410461 -18.456203 -545.74893188 -18.47665405 C-544.1407106 -18.49401108 -544.1407106 -18.49401108 -542.5 -18.51171875 C-541.34100189 -18.53126617 -540.18200378 -18.5508136 -538.98788452 -18.57095337 C-535.74088454 -18.62206034 -532.49394685 -18.66357653 -529.24674606 -18.69935608 C-527.17773772 -18.72272238 -525.108787 -18.74906806 -523.03982544 -18.77624512 C-511.56721531 -18.92494527 -500.09437158 -19.0184273 -488.62109375 -19.09765625 C-487.60855026 -19.10477127 -486.59600677 -19.11188629 -485.55278015 -19.11921692 C-470.84968986 -19.22116716 -456.14672462 -19.29054141 -441.44332886 -19.32781982 C-436.8690013 -19.339634 -432.29477029 -19.35790752 -427.7204895 -19.38165283 C-422.24831442 -19.40928105 -416.77630835 -19.42120474 -411.3040657 -19.42185593 C-409.27712313 -19.42442821 -407.25017926 -19.43203871 -405.22327805 -19.44524002 C-379.66376617 -19.60221977 -355.38684134 -15.32625293 -336.3828125 3.140625 C-327.66512521 11.85831229 -320.5538989 21.55757852 -313.33984375 31.52832031 C-311.73200147 33.74915246 -310.11516031 35.9631265 -308.49609375 38.17578125 C-307.57880759 39.43835224 -306.66210116 40.70134471 -305.74609375 41.96484375 C-305.32344238 42.54194092 -304.90079102 43.11903809 -304.46533203 43.71362305 C-301.62109375 47.67174385 -301.62109375 47.67174385 -301.62109375 49.90234375 C-261.723398 38.65093351 -224.58719042 23.28648378 -189.93359375 0.27734375 C-132.15827423 -38.04357575 -56.63414037 -46.82074221 0 0 Z M-185.62109375 17.90234375 C-215.20584498 36.75754413 -245.57777478 50.07629478 -278.93847656 60.72314453 C-283.17846204 62.08081689 -287.40190061 63.48159504 -291.62109375 64.90234375 C-285.2911715 76.45370186 -277.77445411 87.21259891 -270.37109375 98.08984375 C-255.846929 119.46492478 -255.846929 119.46492478 -249.3984375 129.41796875 C-248.957276 130.09816574 -248.5161145 130.77836273 -248.06158447 131.47917175 C-238.49718421 146.33253349 -238.49718421 146.33253349 -239.62109375 154.90234375 C-241.65657753 161.57420725 -244.9993014 164.80247478 -250.82421875 168.1796875 C-268.07078504 176.88232601 -289.18183654 178.83053602 -307.671875 173.29296875 C-328.46523892 166.34975727 -348.48933802 150.93961895 -361.00390625 132.91015625 C-362.25371933 130.99210953 -362.25371933 130.99210953 -364.62109375 128.90234375 C-371.05531341 129.20894893 -376.94793045 131.0170268 -383.0703125 132.921875 C-384.53377861 133.37163948 -384.53377861 133.37163948 -386.02680969 133.83049011 C-388.07762587 134.46334582 -390.12735153 135.09974517 -392.17602539 135.73950195 C-395.30550458 136.71388192 -398.44045655 137.66895486 -401.57617188 138.62304688 C-403.57458039 139.24232379 -405.57263993 139.86272819 -407.5703125 140.484375 C-408.50372971 140.76682571 -409.43714691 141.04927643 -410.39884949 141.34028625 C-418.16038426 143.79598855 -422.56837329 147.27429182 -427.24609375 153.96484375 C-427.67140381 154.57062256 -428.09671387 155.17640137 -428.53491211 155.80053711 C-440.91096145 173.76824292 -451.236632 193.66784673 -456.62109375 214.90234375 C-456.87366943 215.89234375 -456.87366943 215.89234375 -457.13134766 216.90234375 C-467.55395627 258.47979598 -461.97910176 300.50811557 -440.94140625 337.88671875 C-422.5109671 368.39835486 -390.94479629 390.1379779 -356.62109375 398.90234375 C-324.46542261 406.2948331 -291.4068176 403.7706131 -259.62109375 395.90234375 C-258.16606445 395.5451123 -258.16606445 395.5451123 -256.68164062 395.18066406 C-243.4933217 391.87703818 -230.71947497 387.65858596 -217.99609375 382.90234375 C-217.0074382 382.53458328 -217.0074382 382.53458328 -215.99880981 382.15939331 C-206.30638256 378.53433792 -196.9430154 374.38982969 -187.62109375 369.90234375 C-186.74130859 369.48452637 -185.86152344 369.06670898 -184.95507812 368.63623047 C-153.49992617 353.61395651 -123.62896867 334.68784466 -96.22900391 313.15869141 C-94.5495844 311.84646961 -92.85797064 310.55126508 -91.1640625 309.2578125 C-84.02494075 303.77459639 -77.29245522 298.01125601 -70.75390625 291.82421875 C-68.47560251 289.67205838 -66.13852239 287.60589062 -63.765625 285.55859375 C-52.79203285 276.00566655 -42.41320209 265.5034831 -33.62109375 253.90234375 C-32.6705855 252.66926113 -31.72006369 251.43618897 -30.76953125 250.203125 C0.50490839 209.33998914 27.06873814 159.30430163 26.5847168 106.703125 C26.56628888 104.639198 26.5642095 102.57572022 26.56445312 100.51171875 C26.49966557 74.51134755 20.53525232 49.21495749 3.37890625 28.90234375 C2.55777344 27.92007813 1.73664063 26.9378125 0.890625 25.92578125 C-20.88462996 0.65751262 -53.71806927 -11.16326323 -86.35009766 -13.93652344 C-125.0334525 -16.68120353 -153.84410352 -2.38999736 -185.62109375 17.90234375 Z " fill="#0E57C1" transform="translate(814.62109375,304.09765625)"/>
<path d="M0 0 C3.95433961 -0.01474727 7.90843991 -0.0390741 11.8626709 -0.07177734 C16.55806026 -0.11009345 21.25312523 -0.1283189 25.94866562 -0.13184166 C27.66904767 -0.1363023 29.38942905 -0.14747056 31.10971451 -0.16623878 C50.62466458 -0.36870281 67.98792242 3.82691669 82.56732178 17.79492188 C89.04258472 24.54527769 94.68785299 31.73674505 99.93841553 39.45507812 C100.40909454 40.14349792 100.87977356 40.83191772 101.36471558 41.54119873 C102.89885295 43.78776741 104.42893537 46.03704925 105.95794678 48.28710938 C106.47263519 49.0438797 106.98732361 49.80065002 107.51760864 50.58035278 C111.4674736 56.39157205 115.40283073 62.2125201 119.33294678 68.03710938 C119.94935028 68.95031952 120.56575378 69.86352966 121.20083618 70.80441284 C133.97794443 89.74449832 146.558217 108.81176306 159.09887695 127.90890503 C164.67717544 136.39592231 170.31240234 144.84472496 175.95794678 153.28710938 C172.56426166 156.89212287 169.86834705 158.32586985 165.14544678 159.91210938 C163.96337646 160.316875 162.78130615 160.72164062 161.56341553 161.13867188 C160.37361084 161.51765625 159.18380615 161.89664063 157.95794678 162.28710938 C156.80294678 162.65964844 155.64794678 163.0321875 154.45794678 163.41601562 C139.49350483 167.14042473 124.72611254 162.7926836 111.70599365 155.35107422 C97.11162889 146.46807958 86.05391275 133.85637558 75.95794678 120.28710938 C73.41173953 116.74107439 73.41173953 116.74107439 69.95794678 114.28710938 C61.95217181 114.66082294 54.79423567 117.01520278 47.20794678 119.47460938 C44.62593444 120.2965059 42.0419129 121.1120045 39.45794678 121.92773438 C38.81891418 122.13027328 38.17988159 122.33281219 37.52148438 122.54148865 C31.77521116 124.3583345 26.00319534 126.0714844 20.20794678 127.72460938 C19.39487061 127.95881592 18.58179443 128.19302246 17.74407959 128.43432617 C15.48732269 129.074087 13.22576794 129.6878484 10.95794678 130.28710938 C10.24614258 130.48071045 9.53433838 130.67431152 8.80096436 130.8737793 C-3.6925403 133.99960078 -20.12562984 134.87538587 -31.76861572 128.76367188 C-32.5188501 128.27640625 -33.26908447 127.78914063 -34.04205322 127.28710938 C-34.7304126 126.84109375 -35.41877197 126.39507812 -36.12799072 125.93554688 C-40.80990214 122.39941969 -43.81246109 117.68128389 -46.04205322 112.28710938 C-46.04205322 111.29710937 -46.04205322 110.30710937 -46.04205322 109.28710938 C-34.28423937 106.1244974 -22.33771115 103.80193694 -10.41705322 101.34960938 C6.91945334 97.78106818 6.91945334 97.78106818 24.23138428 94.09570312 C24.96257477 93.94118179 25.69376526 93.78666046 26.44711304 93.62745667 C31.43046847 92.5397783 31.43046847 92.5397783 35.95794678 90.28710938 C36.76957349 88.21394897 36.76957349 88.21394897 36.89544678 85.84960938 C37.03273193 84.67591797 37.03273193 84.67591797 37.17279053 83.47851562 C37.15047201 81.23748418 37.15047201 81.23748418 35.7008667 79.67602539 C32.26649459 76.9392075 28.12575444 77.85823878 23.95794678 78.28710938 C18.12026217 79.30048261 12.35850883 80.59564574 6.58294678 81.91210938 C4.93524574 82.27935423 3.28729294 82.6454712 1.63909912 83.01049805 C-1.67880077 83.7462338 -4.99559485 84.48666066 -8.31158447 85.23095703 C-18.2709521 87.4614299 -28.25729711 89.56806265 -38.24127197 91.68505859 C-40.70004703 92.21359235 -43.15282307 92.7621721 -45.60455322 93.32226562 C-59.75660474 96.43977697 -73.13616467 96.91314608 -86.08892822 89.55664062 C-92.95629485 84.90724781 -97.35363003 79.66395575 -101.04205322 72.28710938 C-101.28033447 70.18554688 -101.28033447 70.18554688 -101.35455322 67.66210938 C-101.39193604 66.84484375 -101.42931885 66.02757812 -101.46783447 65.18554688 C-101.0474961 62.32416087 -100.32763734 60.64528168 -99.01544189 58.10595703 C-98.64803391 57.3896109 -98.28062592 56.67326477 -97.90208435 55.93521118 C-97.61827408 55.39133759 -97.33446381 54.84746399 -97.04205322 54.28710938 C-95.77529251 54.29821243 -94.5085318 54.30931549 -93.2033844 54.320755 C-81.27022748 54.42207673 -69.33715774 54.49704898 -57.4036684 54.54617023 C-51.2683807 54.57227298 -45.13344002 54.60768448 -38.99835205 54.66430664 C-33.07853468 54.71860062 -27.15905126 54.7485248 -21.23900414 54.76149559 C-18.97951181 54.77074004 -16.72003794 54.78879223 -14.46068764 54.81575966 C-11.29770927 54.85201405 -8.13611387 54.85705607 -4.97296143 54.85473633 C-3.569263 54.8817009 -3.569263 54.8817009 -2.13720703 54.90921021 C2.39438979 54.87320684 4.35171589 54.74038889 8.08253479 51.95085144 C10.27448159 49.39548513 10.27448159 49.39548513 9.89544678 46.09960938 C9.1582612 43.1892814 9.1582612 43.1892814 6.95794678 41.28710938 C4.06390515 41.08492839 1.26388612 41.00712254 -1.63165283 41.01586914 C-2.52135773 41.0106424 -3.41106262 41.00541565 -4.32772827 41.00003052 C-6.26530627 40.98976952 -8.202912 40.98400647 -10.14051628 40.98214912 C-13.21448004 40.97849173 -16.2881193 40.96177815 -19.36201477 40.94139099 C-28.10401342 40.88594662 -36.84606189 40.85541621 -45.5881958 40.83081055 C-50.93336288 40.81485812 -56.27830434 40.78454781 -61.62335396 40.74604607 C-63.6545222 40.73445154 -65.68573097 40.7284662 -67.7169323 40.72836494 C-84.04988844 40.72725644 -99.29535682 39.86996369 -111.85455322 28.09960938 C-119.46778008 20.04171617 -122.10746346 12.06549071 -122.04205322 1.28710938 C-81.36438823 0.64191787 -40.68274719 0.14463203 0 0 Z " fill="#59A6FE" transform="translate(385.04205322265625,301.712890625)"/>
<path d="M0 0 C1.04608429 -0.00554901 2.09216858 -0.01109802 3.16995239 -0.01681519 C6.62548727 -0.0286194 10.0797132 -0.00432683 13.53515625 0.02148438 C15.93741801 0.02319531 18.33968164 0.02312997 20.74194336 0.0213623 C25.77573516 0.023016 30.80908187 0.04172412 35.84277344 0.07324219 C42.29591237 0.11291938 48.74846818 0.11728761 55.20170593 0.10977936 C60.16196029 0.10671015 65.12208349 0.11882855 70.08230591 0.13591003 C72.46175311 0.14294249 74.84121517 0.14606427 77.22067261 0.1452179 C80.54582596 0.14701512 83.87028002 0.16839162 87.1953125 0.1953125 C88.17936066 0.1923819 89.16340881 0.18945129 90.17727661 0.18643188 C95.09415412 0.24786628 98.65409935 0.31836442 102.59765625 3.61523438 C104.16466067 6.74924322 104.44930186 10.24678533 103.59765625 13.61523438 C101.43987118 16.02619956 99.64898142 17.43620407 96.41139221 17.98753357 C93.63510251 18.13699751 90.88381044 18.15547393 88.10351562 18.1328125 C86.51975883 18.14332642 86.51975883 18.14332642 84.90400696 18.15405273 C81.41620534 18.17164831 77.92921603 18.16000376 74.44140625 18.14648438 C72.01672205 18.14917882 69.5920389 18.15306084 67.1673584 18.15808105 C62.08656524 18.16397825 57.00605342 18.15540561 51.92529297 18.13671875 C45.4115535 18.11392956 38.89847328 18.12705139 32.384758 18.15100861 C27.3781843 18.1654603 22.37176699 18.16086337 17.3651886 18.15049744 C14.96340355 18.14782844 12.56160431 18.15110596 10.15983582 18.16041565 C6.80344005 18.17057038 3.44811301 18.15509372 0.09179688 18.1328125 C-1.39830147 18.14495789 -1.39830147 18.14495789 -2.91850281 18.15734863 C-7.19762167 18.10470251 -9.7507389 17.98867008 -13.51916504 15.82897949 C-15.77049003 13.18246502 -15.99803064 11.15218368 -16.06640625 7.71289062 C-13.52966674 -0.30022182 -7.05984269 -0.09515431 0 0 Z " fill="#0E55C0" transform="translate(241.40234375,671.384765625)"/>
<path d="M0 0 C1.34375702 -0.00856522 1.34375702 -0.00856522 2.71466064 -0.01730347 C3.70014389 -0.01842133 4.68562714 -0.01953918 5.70097351 -0.02069092 C7.25481247 -0.02813828 7.25481247 -0.02813828 8.84004211 -0.03573608 C12.27896277 -0.05038297 15.71783729 -0.05716407 19.15678406 -0.06268311 C21.54091392 -0.06843266 23.92504376 -0.07419042 26.30917358 -0.07995605 C31.31363644 -0.09047337 36.31808319 -0.09631119 41.32255554 -0.09979248 C47.73871908 -0.10527742 54.15467043 -0.12930258 60.5707674 -0.15776443 C65.49752425 -0.17637828 70.42422987 -0.18159576 75.35101891 -0.18312836 C77.71653083 -0.18615845 80.08204179 -0.19419893 82.4475193 -0.20731354 C85.756127 -0.22434679 89.06421489 -0.22250016 92.37284851 -0.21600342 C93.35225906 -0.2252182 94.33166962 -0.23443298 95.34075928 -0.243927 C100.25694177 -0.21365049 103.78731388 -0.15995338 107.73100281 3.14044189 C109.30035875 6.27915377 109.08301384 8.67900011 108.73100281 12.14044189 C106.70812287 15.06582245 105.0979002 16.85647247 101.52532768 17.59866524 C98.71523099 17.7863569 95.94547108 17.8043322 93.12919617 17.77154541 C92.06199844 17.77870071 90.99480072 17.78585602 89.89526367 17.79322815 C86.3700217 17.81012789 82.84604895 17.79070491 79.32084656 17.76934814 C76.87134699 17.77017665 74.42184748 17.77263536 71.97235107 17.7766571 C66.84021763 17.77951592 61.70852042 17.76480372 56.57646179 17.73736572 C49.99310212 17.7032656 43.41052169 17.70930676 36.8271246 17.7280283 C31.76996345 17.73858814 26.71298415 17.72966986 21.65583992 17.71464348 C19.22811485 17.709455 16.80037084 17.70995149 14.37264824 17.71618843 C10.9824871 17.72162882 7.59344824 17.70130217 4.20341492 17.67388916 C3.19707001 17.68041504 2.1907251 17.68694092 1.15388489 17.69366455 C-5.63757464 17.60012174 -5.63757464 17.60012174 -8.89031982 15.23210144 C-10.81166028 12.31714092 -10.83212049 10.44418074 -10.66743469 7.04278564 C-10.06004142 4.14278051 -8.60399927 2.85735519 -6.26899719 1.14044189 C-3.94306237 -0.02252552 -2.59033929 0.00986963 0 0 Z " fill="#1157C1" transform="translate(192.2689971923828,612.8595581054688)"/>
<path d="M0 0 C1.4375 1.5 1.4375 1.5 1.375 4.5 C0.55772474 9.83882411 -2.92631247 12.74380628 -6.5625 16.5 C-7.62519066 17.64585183 -8.68485179 18.79451753 -9.7421875 19.9453125 C-12.99618739 23.48220851 -16.2609121 27.00744209 -19.5625 30.5 C-20.45710937 31.45390625 -21.35171875 32.4078125 -22.2734375 33.390625 C-24.5625 35.5 -24.5625 35.5 -27.5625 36.0625 C-31.22157504 35.37642343 -32.91417676 34.07265686 -35.5625 31.5 C-37.67872986 27.26754029 -36.43222348 21.99264802 -35.5625 17.5 C-32.35671382 9.60222025 -25.68822591 4.76708916 -18.5625 0.5 C-12.85522998 -1.86162897 -5.56118713 -3.25532905 0 0 Z " fill="#0D58C1" transform="translate(588.5625,580.5)"/>
<path d="M0 0 C2.84804768 2.37337307 2.84804768 2.37337307 3.33203125 5.76953125 C2.8170954 10.04305872 1.76064729 11.20693982 -1.54467773 13.83666992 C-2.16930908 14.30306885 -2.79394043 14.76946777 -3.4375 15.25 C-9.56971627 20.10171792 -14.57984 25.2165121 -19.52734375 31.26171875 C-22.76615968 34.13038429 -24.84329279 34.49295951 -29.125 34.5625 C-32.0625 32.75 -32.0625 32.75 -34.125 29.5625 C-35.53515452 23.07349629 -33.91248035 17.643856 -30.7421875 11.95703125 C-23.7785808 1.64618364 -12.4601492 -5.73166863 0 0 Z " fill="#0D58C1" transform="translate(452.125,535.4375)"/>
<path d="M0 0 C1.04285156 -0.01675781 2.08570313 -0.03351563 3.16015625 -0.05078125 C5.9375 0.3125 5.9375 0.3125 7.80859375 1.45703125 C9.50122136 4.23903165 9.39549143 6.12291683 8.9375 9.3125 C7.25 11.296875 7.25 11.296875 4.9375 13.0625 C1.38956631 15.96434215 -1.45628809 18.86331119 -4.25 22.5 C-8.03333667 27.36964125 -11.18226522 31.25445457 -17.125 33.4375 C-20.0625 33.3125 -20.0625 33.3125 -22.9375 31.4375 C-25.34774962 27.89301526 -25.9242731 25.99098985 -25.671875 21.77734375 C-23.52570063 13.09634356 -15.56445428 5.76855952 -8.203125 1.14453125 C-5.39553903 0.05326152 -3.00619495 0.01117545 0 0 Z " fill="#0D58C1" transform="translate(667.0625,344.6875)"/>
<path d="M0 0 C2.5 1.625 2.5 1.625 4 4 C4.55549902 8.30773767 4.33109755 11.01316092 1.8046875 14.5 C0.84568318 15.68114188 -0.13171677 16.84753574 -1.125 18 C-1.62765381 18.6086792 -2.13030762 19.2173584 -2.64819336 19.84448242 C-4.08399595 21.57611646 -5.54012911 23.28866306 -7 25 C-7.65871094 25.80050781 -8.31742188 26.60101562 -8.99609375 27.42578125 C-12.1034068 31.16850495 -13.49191985 32.80450813 -18.375 33.4375 C-22 33 -22 33 -24.4375 30.5 C-26.26124565 26.41480975 -26.98686027 23.34064323 -26 19 C-21.64010423 8.45790828 -12.16325077 -3.05283172 0 0 Z " fill="#0D58C1" transform="translate(746,488)"/>
<path d="M0 0 C0.99 0.66 1.98 1.32 3 2 C2.67 3.65 2.34 5.3 2 7 C-4.6 7 -11.2 7 -18 7 C-18 6.67 -18 6.34 -18 6 C-13.05 5.67 -8.1 5.34 -3 5 C-2.67 3.68 -2.34 2.36 -2 1 C-1.34 0.67 -0.68 0.34 0 0 Z " fill="#0746B9" transform="translate(510,715)"/>
<path d="M0 0 C-0.66 0 -1.32 0 -2 0 C-2.33 0.66 -2.66 1.32 -3 2 C-3.804375 2.226875 -4.60875 2.45375 -5.4375 2.6875 C-8.40853714 3.84174011 -8.40853714 3.84174011 -9.3125 7.625 C-9.539375 8.73875 -9.76625 9.8525 -10 11 C-10.66 10.67 -11.32 10.34 -12 10 C-12.99 10.495 -12.99 10.495 -14 11 C-13.9158797 8.13990965 -13.43181261 6.45351173 -11.4453125 4.3671875 C-4.71424096 -1.41427229 -4.71424096 -1.41427229 0 0 Z " fill="#0844B8" transform="translate(262,288)"/>
<path d="M0 0 C0.33 0 0.66 0 1 0 C1 1.65 1 3.3 1 5 C1.99 4.67 2.98 4.34 4 4 C4.1875 7.375 4.1875 7.375 4 11 C3.01 11.66 2.02 12.32 1 13 C-0.32229189 10.35541621 -0.09677194 8.32238699 -0.0625 5.375 C-0.05347656 4.37210937 -0.04445313 3.36921875 -0.03515625 2.3359375 C-0.02355469 1.56507813 -0.01195312 0.79421875 0 0 Z " fill="#0744BA" transform="translate(268,365)"/>
<path d="M0 0 C3.64566574 2.43044383 3.9977335 3.82388959 5 8 C4.625 10.375 4.625 10.375 4 12 C3.34 11.67 2.68 11.34 2 11 C1.3671875 8.49609375 1.3671875 8.49609375 0.875 5.4375 C0.70742188 4.42558594 0.53984375 3.41367187 0.3671875 2.37109375 C0.24601563 1.58863281 0.12484375 0.80617188 0 0 Z " fill="#E5EDF8" transform="translate(855,372)"/>
<path d="M0 0 C1.33332095 2.6666419 0.67102033 4.16680303 0 7 C0.99 7 1.98 7 3 7 C3.33 8.65 3.66 10.3 4 12 C0.125 10.125 0.125 10.125 -1 9 C-1.1328125 7.1875 -1.1328125 7.1875 -1.125 5 C-1.12757813 4.278125 -1.13015625 3.55625 -1.1328125 2.8125 C-1 1 -1 1 0 0 Z " fill="#073DB6" transform="translate(183,617)"/>
<path d="M0 0 C2 3.75 2 3.75 2 6 C1.34 6 0.68 6 0 6 C-0.33 6.66 -0.66 7.32 -1 8 C-1.93065133 5.39417629 -2.14917407 4.35801776 -1.0625 1.75 C-0.711875 1.1725 -0.36125 0.595 0 0 Z " fill="#E7EFF9" transform="translate(837,500)"/>
</svg>
