<?xml version="1.0" encoding="UTF-8"?>
<svg version="1.1" xmlns="http://www.w3.org/2000/svg" width="1024" height="1024">
<path d="M0 0 C24.40413096 21.41404847 38.85433452 53.77542994 41 86 C41.18715053 91.27134632 41.24559373 96.53849291 41.25 101.8125 C41.25101212 102.90623428 41.25101212 102.90623428 41.25204468 104.02206421 C41.23418468 116.22244641 40.50677482 128.03595863 38 140 C37.82839355 140.82177734 37.65678711 141.64355469 37.47998047 142.49023438 C28.17879015 185.48018641 6.56736737 226.69659641 -22 260 C-22.78246094 260.96550781 -23.56492187 261.93101562 -24.37109375 262.92578125 C-31.17570979 271.23616997 -38.66162554 278.84998758 -46.25 286.4375 C-46.76942169 286.95782806 -47.28884338 287.47815613 -47.82400513 288.01425171 C-53.70170922 293.89079656 -59.63966696 299.64141941 -66 305 C-66.63292969 305.53971436 -67.26585937 306.07942871 -67.91796875 306.63549805 C-77.86444811 315.07331176 -88.13547715 322.92565756 -98.79443359 330.43847656 C-100.93249626 331.95220789 -103.05574369 333.48459559 -105.17578125 335.0234375 C-122.63178481 347.63055118 -141.15884427 358.60263805 -160 369 C-160.89380371 369.4935498 -161.78760742 369.98709961 -162.70849609 370.49560547 C-224.72264239 404.44705239 -302.85049346 429.05655781 -373 409 C-411.56256365 397.11578036 -445.03483462 370.13698787 -464.25927734 334.67724609 C-474.29731025 315.33567049 -480.12962435 294.9127155 -483.61328125 273.46875 C-483.7481897 272.64858398 -483.88309814 271.82841797 -484.02209473 270.98339844 C-484.34985415 268.98922583 -484.67518609 266.99465449 -485 265 C-486.26676071 265.00666183 -487.53352142 265.01332367 -488.83866882 265.02018738 C-500.77187806 265.08098068 -512.70505591 265.12596416 -524.63838482 265.15543652 C-530.77355588 265.17109786 -536.90860201 265.192345 -543.04370117 265.22631836 C-548.96349632 265.25889463 -554.88317123 265.27684948 -560.80304909 265.28463173 C-563.06250718 265.29017832 -565.32195863 265.30100931 -567.58136559 265.31719017 C-570.74408609 265.33894103 -573.90630863 265.34196785 -577.0690918 265.34057617 C-578.47279022 265.35675491 -578.47279022 265.35675491 -579.90484619 265.3732605 C-584.73989518 265.35021193 -588.10640874 265.21564947 -592 262 C-593.58939347 258.82121306 -593.41576711 256.5043228 -593 253 C-589.66411254 249.24443144 -587.40704008 247.71843937 -582.36819458 247.39872742 C-580.53340857 247.38431321 -578.69827784 247.39734818 -576.86376953 247.43237305 C-575.8582756 247.43164291 -574.85278168 247.43091278 -573.81681824 247.43016052 C-570.50492756 247.43363421 -567.19445643 247.4724868 -563.8828125 247.51171875 C-561.58211027 247.52104761 -559.28139809 247.52816337 -556.98068237 247.53315735 C-550.93388302 247.55222114 -544.88768696 247.60131768 -538.84112549 247.65667725 C-532.66760417 247.70788244 -526.4939851 247.73067417 -520.3203125 247.75585938 C-508.21327703 247.80943614 -496.10668874 247.89474229 -484 248 C-483.93796387 247.05259445 -483.87592773 246.1051889 -483.81201172 245.1290741 C-483.68463623 243.25376762 -483.68463623 243.25376762 -483.5546875 241.34057617 C-483.47202637 240.10442062 -483.38936523 238.86826508 -483.30419922 237.59465027 C-482.89315882 232.73748301 -482.06311235 228.06436295 -481 223.3125 C-480.7841626 222.34683105 -480.5683252 221.38116211 -480.34594727 220.38623047 C-473.97274275 193.17045554 -463.13174916 167.50006499 -448 144 C-448.7528125 143.93683594 -449.505625 143.87367188 -450.28125 143.80859375 C-464.91385226 142.12158257 -478.39936915 136.55357969 -488 125 C-491.9505858 118.96245757 -494.997906 113.31797731 -494 106 C-494.78761719 105.97421875 -495.57523437 105.9484375 -496.38671875 105.921875 C-513.9091798 105.00946283 -528.8820693 98.86201416 -541 86 C-543.27985699 83.12853455 -545.19726437 80.18899768 -547 77 C-547.928125 75.453125 -547.928125 75.453125 -548.875 73.875 C-551.81696352 66.31750089 -551.03551976 56.60654432 -548 49.25 C-547.62875 48.49203125 -547.2575 47.7340625 -546.875 46.953125 C-545.79557687 44.90039316 -545.79557687 44.90039316 -546 42 C-547.72912333 40.39497384 -547.72912333 40.39497384 -550 38.875 C-560.94247685 30.62526432 -569.49506736 18.80117845 -571.7890625 5.01171875 C-572.46551773 -1.43965979 -572.43822352 -7.30366929 -569 -13 C-564.47487597 -17.97667569 -560.85072597 -20.79272948 -554.06057739 -21.15821838 C-552.90766205 -21.17376266 -551.7547467 -21.18930695 -550.56689453 -21.20532227 C-549.9223957 -21.21521053 -549.27789686 -21.2250988 -548.61386776 -21.23528671 C-546.45355345 -21.26705969 -544.29321992 -21.29183618 -542.1328125 -21.31640625 C-540.57954011 -21.33728797 -539.02627173 -21.35846978 -537.4730072 -21.37992859 C-532.35708579 -21.44841599 -527.24106237 -21.50571343 -522.125 -21.5625 C-520.35610913 -21.58284283 -518.58721875 -21.60322878 -516.81832886 -21.62365723 C-503.54576349 -21.77491075 -490.27301219 -21.89566128 -477 -22 C-476.01760094 -22.00777214 -475.03520187 -22.01554428 -474.02303314 -22.02355194 C-461.25456853 -22.12308039 -448.48627044 -22.1946916 -435.71746826 -22.23117065 C-431.9708639 -22.24218821 -428.22438904 -22.25997473 -424.47784424 -22.28372192 C-420.035309 -22.31128311 -415.59298019 -22.32335524 -411.15036201 -22.32413673 C-409.52976391 -22.32673225 -407.90916362 -22.33429243 -406.28861809 -22.34760094 C-382.76849078 -22.53011518 -359.07386313 -18.13001879 -341.4140625 -1.40625 C-340.61742187 -0.6121875 -339.82078125 0.181875 -339 1 C-338.46810059 1.50490967 -337.93620117 2.00981934 -337.38818359 2.5300293 C-332.82296106 6.93279514 -329.06951189 11.66783081 -325.375 16.8125 C-324.78251465 17.628396 -324.1900293 18.44429199 -323.57958984 19.28491211 C-322.34281986 20.98952086 -321.10863215 22.69600598 -319.87695312 24.40429688 C-317.99801595 27.00274381 -316.10279619 29.58855792 -314.203125 32.171875 C-313.01010028 33.80185181 -311.8173803 35.43205171 -310.625 37.0625 C-309.77687744 38.21359253 -309.77687744 38.21359253 -308.91162109 39.38793945 C-308.13939209 40.45081177 -308.13939209 40.45081177 -307.3515625 41.53515625 C-306.89604004 42.157854 -306.44051758 42.78055176 -305.97119141 43.42211914 C-305 45 -305 45 -305 47 C-262.65597852 34.24583685 -225.37186871 17.78992948 -188 -6 C-129.67138439 -43.07256343 -54.63832113 -47.44275645 0 0 Z M-554 -4 C-553 -2 -553 -2 -553 -2 Z M-522 -4 C-522 -3.67 -522 -3.34 -522 -3 C-520.02 -3 -518.04 -3 -516 -3 C-516 -3.33 -516 -3.66 -516 -4 C-517.98 -4 -519.96 -4 -522 -4 Z M-501 -4 C-501 -3.67 -501 -3.34 -501 -3 C-499.35 -3 -497.7 -3 -496 -3 C-496 -3.33 -496 -3.66 -496 -4 C-497.65 -4 -499.3 -4 -501 -4 Z M-554 4 C-553 6 -553 6 -553 6 Z M-434 50 C-434 50.33 -434 50.66 -434 51 C-432.35 51 -430.7 51 -429 51 C-429 50.67 -429 50.34 -429 50 C-430.65 50 -432.3 50 -434 50 Z M-534 61 C-533 63 -533 63 -533 63 Z M-491 88 C-487 89 -487 89 -487 89 Z M-479 104 C-478 106 -478 106 -478 106 Z " fill="#2B7DE7" transform="translate(818,307)"/>
<path d="M0 0 C1.98629784 -0.00321911 3.97259546 -0.00658366 5.95889282 -0.01008606 C10.09906566 -0.01604044 14.23921772 -0.01792947 18.37939453 -0.01733398 C23.67861491 -0.01723186 28.97770283 -0.03095258 34.27689171 -0.04810619 C38.36899427 -0.0592246 42.46106458 -0.06125334 46.55318069 -0.06072426 C48.50756924 -0.06190197 50.46195869 -0.06631198 52.41633224 -0.07405663 C55.1440239 -0.08386565 57.87142465 -0.08097628 60.59912109 -0.07495117 C61.40026337 -0.08057068 62.20140564 -0.08619019 63.02682495 -0.09197998 C67.54566164 -0.06664622 71.075799 0.53457395 75.3515625 2.16796875 C76.0115625 2.16796875 76.6715625 2.16796875 77.3515625 2.16796875 C77.3515625 2.82796875 77.3515625 3.48796875 77.3515625 4.16796875 C78.13273437 3.82572266 78.13273437 3.82572266 78.9296875 3.4765625 C82.50628261 3.02083506 85.02558674 4.60222868 88.1015625 6.23046875 C89.03754272 6.71483398 89.03754272 6.71483398 89.99243164 7.20898438 C94.84468235 9.77667312 99.22285449 12.55770581 103.3515625 16.16796875 C103.89554688 16.63074219 104.43953125 17.09351563 105 17.5703125 C109.2853917 21.52373724 112.70401931 26.12537105 116.1640625 30.79296875 C116.64464111 31.4387085 117.12521973 32.08444824 117.62036133 32.74975586 C120.08356953 36.14229514 121.85320125 39.23041476 123.3515625 43.16796875 C124.99850735 44.85412657 126.66282371 46.52367046 128.3515625 48.16796875 C128.3515625 48.82796875 128.3515625 49.48796875 128.3515625 50.16796875 C129.0321875 50.80734375 129.7128125 51.44671875 130.4140625 52.10546875 C133.78405287 55.34293141 136.02075818 59.19171329 138.46875 63.14453125 C140.99625323 67.20321901 143.65889645 71.16506711 146.3203125 75.13671875 C148.31945318 78.12005177 150.30429319 81.11256265 152.2890625 84.10546875 C155.11452798 88.34920711 157.99705543 92.54938413 160.9140625 96.73046875 C164.26735363 101.55369571 167.47490073 106.44180177 170.6015625 111.4140625 C174.34497333 117.30492106 178.24874507 123.09633734 182.19140625 128.85546875 C182.73925781 129.65984375 183.28710938 130.46421875 183.8515625 131.29296875 C184.33625 131.99679687 184.8209375 132.700625 185.3203125 133.42578125 C186.3515625 135.16796875 186.3515625 135.16796875 186.3515625 137.16796875 C187.0115625 137.82796875 187.6715625 138.48796875 188.3515625 139.16796875 C192.00544296 143.32583272 195.24379651 148.02848454 197.3515625 153.16796875 C196.3515625 156.16796875 196.3515625 156.16796875 194.6015625 157.265625 C189.94160163 159.26390683 185.48728145 160.7692642 180.4921875 161.67578125 C178.27369229 162.11261193 178.27369229 162.11261193 176.0390625 163.20703125 C166.46166249 166.63150858 153.0332665 164.31629708 144.046875 160.08203125 C132.44912348 154.26552973 132.44912348 154.26552973 129.3515625 151.16796875 C128.3615625 150.50796875 127.3715625 149.84796875 126.3515625 149.16796875 C123.3515625 147.16796875 123.3515625 147.16796875 121.3515625 145.16796875 C120.27118036 144.26857846 119.18747835 143.37316984 118.1015625 142.48046875 C114.43154266 139.35217741 111.37548932 135.91271533 108.3515625 132.16796875 C107.6296875 131.28109375 106.9078125 130.39421875 106.1640625 129.48046875 C105.08192178 128.09980645 104.01393926 126.70757343 102.9765625 125.29296875 C101.4779177 123.33320247 99.93692707 121.43291075 98.3515625 119.54296875 C97.8565625 118.95257813 97.3615625 118.3621875 96.8515625 117.75390625 C94.1434618 114.89065395 92.55272009 114.18473188 88.6015625 113.85546875 C84.33034843 113.9643886 81.2195279 115.33577461 77.3515625 117.16796875 C72.16089392 119.11805418 66.97625287 120.50489942 61.5546875 121.6328125 C58.0236116 122.49053838 54.73506669 123.84897559 51.3515625 125.16796875 C50.02355794 125.52193594 48.69027784 125.85695408 47.3515625 126.16796875 C46.4853125 126.37421875 45.6190625 126.58046875 44.7265625 126.79296875 C42.3515625 127.16796875 42.3515625 127.16796875 40.3515625 126.16796875 C40.3515625 126.82796875 40.3515625 127.48796875 40.3515625 128.16796875 C39.2996875 128.29171875 38.2478125 128.41546875 37.1640625 128.54296875 C33.85941834 129.08471369 31.39110856 129.85357045 28.3515625 131.16796875 C16.96876409 134.58219695 1.17266076 133.88014426 -9.4765625 128.65234375 C-11.83905354 127.0376916 -13.68630704 125.24527668 -15.6484375 123.16796875 C-16.916875 122.02328125 -16.916875 122.02328125 -18.2109375 120.85546875 C-21.13197976 117.63483241 -22.34620964 115.30445723 -23.6484375 111.16796875 C-21.6484375 108.16796875 -21.6484375 108.16796875 -19.40625 107.69140625 C-18.53742188 107.64242187 -17.66859375 107.5934375 -16.7734375 107.54296875 C-13.07385661 107.31185575 -13.07385661 107.31185575 -9.453125 106.58203125 C-7.6484375 106.16796875 -7.6484375 106.16796875 -5.6484375 107.16796875 C-5.6484375 106.50796875 -5.6484375 105.84796875 -5.6484375 105.16796875 C-3.7921875 104.95140625 -3.7921875 104.95140625 -1.8984375 104.73046875 C0.9237877 104.3783106 3.60692949 103.92510889 6.3515625 103.16796875 C7.558125 102.95140625 7.558125 102.95140625 8.7890625 102.73046875 C11.39135308 102.24192591 11.39135308 102.24192591 13.8515625 101.10546875 C16.56253425 100.08885434 18.48395058 100.16796875 21.3515625 100.16796875 C23.03232481 99.53768288 24.69951794 98.87008769 26.3515625 98.16796875 C30.24978989 97.1934119 34.17280479 96.8723043 38.16796875 96.546875 C40.53828135 96.13556852 42.22574 95.26402692 44.3515625 94.16796875 C46.01770858 94.1263151 47.68541642 94.1263151 49.3515625 94.16796875 C52.89488655 93.61432437 55.56427351 92.44180977 58.3515625 90.16796875 C59.65056265 87.52498143 60.29213314 85.11566479 60.3515625 82.16796875 C59.19230712 79.50619034 59.19230712 79.50619034 56.3515625 78.16796875 C51.05831022 76.8397363 47.35263647 76.94526921 42.3515625 79.16796875 C39.5390625 78.79296875 39.5390625 78.79296875 37.3515625 78.16796875 C37.3515625 78.82796875 37.3515625 79.48796875 37.3515625 80.16796875 C35.36588542 80.39583333 33.38020833 80.62369792 31.39453125 80.8515625 C29.15759857 81.1396761 29.15759857 81.1396761 26.3515625 82.16796875 C25.6915625 81.83796875 25.0315625 81.50796875 24.3515625 81.16796875 C24.3515625 81.82796875 24.3515625 82.48796875 24.3515625 83.16796875 C23.6090625 83.12671875 22.8665625 83.08546875 22.1015625 83.04296875 C19.38963798 82.97970665 19.38963798 82.97970665 17.3515625 84.16796875 C14.88086845 85.40331577 13.08414407 85.23803494 10.3515625 85.16796875 C8.8665625 85.66296875 8.8665625 85.66296875 7.3515625 86.16796875 C6.6915625 85.83796875 6.0315625 85.50796875 5.3515625 85.16796875 C5.3515625 85.82796875 5.3515625 86.48796875 5.3515625 87.16796875 C-2.3984375 88.29296875 -2.3984375 88.29296875 -4.6484375 87.16796875 C-4.6484375 87.82796875 -4.6484375 88.48796875 -4.6484375 89.16796875 C-6.47375 89.38453125 -6.47375 89.38453125 -8.3359375 89.60546875 C-12.2409458 90.09445568 -16.04637127 90.71023554 -19.8359375 91.79296875 C-21.6484375 92.16796875 -21.6484375 92.16796875 -23.6484375 91.16796875 C-23.6484375 91.82796875 -23.6484375 92.48796875 -23.6484375 93.16796875 C-28.5984375 93.66296875 -28.5984375 93.66296875 -33.6484375 94.16796875 C-33.6484375 94.49796875 -33.6484375 94.82796875 -33.6484375 95.16796875 C-35.89817197 95.22210675 -38.14828133 95.26082366 -40.3984375 95.29296875 C-41.65140625 95.31617188 -42.904375 95.339375 -44.1953125 95.36328125 C-47.44822276 95.17929311 -48.92181931 94.77661137 -51.6484375 93.16796875 C-52.5353125 93.06484375 -53.4221875 92.96171875 -54.3359375 92.85546875 C-61.3916653 91.39107241 -67.47924274 87.0720766 -72.6484375 82.16796875 C-72.6484375 81.50796875 -72.6484375 80.84796875 -72.6484375 80.16796875 C-73.2671875 79.54921875 -73.8859375 78.93046875 -74.5234375 78.29296875 C-77.91568539 74.90072086 -78.93837577 72.13103441 -78.9609375 67.35546875 C-78.8545209 62.55962721 -78.10879191 59.29784937 -75.6484375 55.16796875 C-73.6484375 54.16796875 -73.6484375 54.16796875 -71.6484375 54.16796875 C-70.1634375 54.66296875 -70.1634375 54.66296875 -68.6484375 55.16796875 C-65.65254261 55.28537996 -62.67908517 55.34613449 -59.68237305 55.36083984 C-58.76498352 55.36901733 -57.84759399 55.37719482 -56.90240479 55.38562012 C-53.86332857 55.41045402 -50.82429898 55.42698413 -47.78515625 55.44140625 C-46.74730295 55.44672993 -45.70944965 55.4520536 -44.64014626 55.4575386 C-39.14788171 55.48426016 -33.65563983 55.50363916 -28.16333008 55.51806641 C-22.49034518 55.53472119 -16.81794041 55.57950912 -11.14517498 55.63043785 C-6.78283518 55.66408689 -2.42063359 55.67564122 1.94182396 55.68129349 C4.03301622 55.68801128 6.12419923 55.70324696 8.21526527 55.7271843 C11.14309704 55.75879095 14.06935699 55.75887934 16.99731445 55.75146484 C18.29036751 55.77607285 18.29036751 55.77607285 19.60954285 55.80117798 C23.7790195 55.75799914 26.56779957 55.44430532 29.936203 52.86196899 C32.76182915 50.31341149 32.76182915 50.31341149 32.3515625 46.48046875 C31.62310733 43.12446304 31.62310733 43.12446304 29.3515625 41.16796875 C26.40566418 40.95531192 23.55141148 40.86700784 20.60327148 40.86499023 C19.24461975 40.85233124 19.24461975 40.85233124 17.85852051 40.8394165 C14.854894 40.81355779 11.85136581 40.80148075 8.84765625 40.7890625 C6.76781932 40.77289815 4.68799006 40.75571929 2.60816956 40.73756409 C-2.87409945 40.69179692 -8.35637848 40.65703087 -13.83874512 40.62536621 C-22.61875089 40.5735602 -31.39864445 40.50853363 -40.17851067 40.43715096 C-43.25470356 40.41423119 -46.33088203 40.39801618 -49.40711975 40.38243103 C-51.2812618 40.36903006 -53.15540233 40.35541576 -55.02954102 40.34155273 C-55.89242233 40.33893936 -56.75530365 40.33632599 -57.64433289 40.33363342 C-63.53480274 40.28160351 -63.53480274 40.28160351 -64.6484375 39.16796875 C-66.64385646 38.94267951 -68.64003614 38.7203578 -70.640625 38.546875 C-72.6484375 38.16796875 -72.6484375 38.16796875 -75.6484375 36.16796875 C-76.4115625 35.87921875 -77.1746875 35.59046875 -77.9609375 35.29296875 C-83.504391 32.97245333 -87.05976932 29.91427182 -90.6484375 25.16796875 C-91.4940625 24.42546875 -92.3396875 23.68296875 -93.2109375 22.91796875 C-96.32291499 19.40701978 -97.76295672 15.76704749 -98.6484375 11.16796875 C-98.3184375 10.50796875 -97.9884375 9.84796875 -97.6484375 9.16796875 C-98.3084375 9.16796875 -98.9684375 9.16796875 -99.6484375 9.16796875 C-99.6484375 6.52796875 -99.6484375 3.88796875 -99.6484375 1.16796875 C-98.83570374 1.17018936 -98.02296997 1.17240997 -97.18560791 1.17469788 C-89.47808676 1.19484206 -81.7705786 1.21001432 -74.06303787 1.21978092 C-70.10174678 1.22497101 -66.14047767 1.23199716 -62.17919922 1.2434082 C-58.34718361 1.25437619 -54.51518898 1.26027466 -50.68315887 1.26284599 C-49.23054423 1.26467543 -47.77793057 1.26824703 -46.32532501 1.27369881 C-39.8458414 1.29702132 -33.40494294 1.30594049 -26.94970703 0.67236328 C-17.99113181 -0.17108344 -8.98980353 0.00344067 0 0 Z " fill="#59A6FE" transform="translate(362.6484375,301.83203125)"/>
<path d="M0 0 C1.03633072 -0.00525696 2.07266144 -0.01051392 3.14039612 -0.01593018 C6.56315215 -0.02912486 9.98544243 -0.02039367 13.40820312 -0.01025391 C15.78804616 -0.01227479 18.16788858 -0.01518634 20.54772949 -0.01895142 C25.53432107 -0.02337406 30.52075139 -0.01694543 35.50732422 -0.00292969 C41.89989813 0.01416194 48.29209418 0.00432047 54.68465424 -0.01364708 C59.59856006 -0.02448638 64.51237627 -0.02103785 69.42628479 -0.0132637 C71.78341212 -0.01126211 74.14054757 -0.01371951 76.49766541 -0.02070236 C79.79163169 -0.028319 83.08498558 -0.01670895 86.37890625 0 C87.35360367 -0.00607269 88.32830109 -0.01214539 89.33253479 -0.0184021 C97.84483695 0.06161193 97.84483695 0.06161193 101.68945312 3.38818359 C103.18945312 6.76318359 103.18945312 6.76318359 103.68945312 10.38818359 C102.16546538 13.99762826 100.97320414 15.19901625 97.68945312 17.38818359 C95.6319828 17.6454525 95.6319828 17.6454525 93.22427368 17.65560913 C92.3102327 17.6641391 91.39619171 17.67266907 90.45445251 17.68145752 C89.45386307 17.68055115 88.45327362 17.67964478 87.42236328 17.67871094 C86.36681747 17.68542816 85.31127167 17.69214539 84.22373962 17.69906616 C80.72528408 17.7181046 77.22701979 17.72197334 73.72851562 17.72412109 C71.30097372 17.73054498 68.87343259 17.73727303 66.44589233 17.74429321 C61.35323288 17.75628065 56.26064133 17.75997253 51.16796875 17.75878906 C44.63852624 17.7585858 38.10951862 17.78588932 31.58017921 17.82033348 C26.56505326 17.84255829 21.55003269 17.84662795 16.53486252 17.84556961 C14.12748083 17.84793218 11.72009653 17.85679238 9.31276321 17.87223434 C5.94664204 17.89180412 2.58146807 17.88609102 -0.78466797 17.87402344 C-1.78120895 17.88526245 -2.77774994 17.89650146 -3.80448914 17.90808105 C-8.15071443 17.86843644 -10.62933713 17.80096623 -14.40982056 15.51016235 C-16.64657093 13.01304494 -17.22900481 11.73140811 -17.31054688 8.38818359 C-16.57133252 5.28348331 -15.82192471 3.81597422 -13.36901855 1.76400757 C-8.91617669 -0.23906038 -4.83029393 -0.03009436 0 0 Z " fill="#0E55C0" transform="translate(242.310546875,671.61181640625)"/>
<path d="M0 0 C1.01521729 -0.00511093 2.03043457 -0.01022186 3.07641602 -0.01548767 C6.42934071 -0.02937757 9.78205973 -0.02842738 13.13500977 -0.02612305 C15.46761654 -0.03001018 17.80022261 -0.03434488 20.13282776 -0.03910828 C25.02102961 -0.04656911 29.90915924 -0.04628007 34.79736328 -0.04101562 C41.05978656 -0.03521991 47.3219142 -0.05215538 53.5842886 -0.0753603 C58.40128812 -0.09009533 63.21821639 -0.09096966 68.03523445 -0.08785057 C70.34409229 -0.08836385 72.65295411 -0.09360287 74.96179008 -0.10366249 C78.1908678 -0.11600538 81.41936894 -0.10924779 84.6484375 -0.09765625 C85.60083817 -0.10529999 86.55323883 -0.11294373 87.53450012 -0.12081909 C92.72278942 -0.07967501 96.42155652 0.32085279 100.88891602 3.2746582 C102.45827195 6.41337008 102.24092704 8.81321642 101.88891602 12.2746582 C99.86603607 15.20003875 98.2558134 16.99068878 94.68324089 17.73288155 C91.87314419 17.92057321 89.10338429 17.93854851 86.28710938 17.90576172 C85.21991165 17.91291702 84.15271393 17.92007233 83.05317688 17.92744446 C79.52793491 17.9443442 76.00396215 17.92492122 72.47875977 17.90356445 C70.0292602 17.90439296 67.57976069 17.90685167 65.13026428 17.91087341 C59.99813084 17.91373223 54.86643363 17.89902003 49.734375 17.87158203 C43.15101533 17.83748191 36.56843489 17.84352307 29.9850378 17.86224461 C24.92787666 17.87280445 19.87089736 17.86388616 14.81375313 17.84885979 C12.38602806 17.84367131 9.95828405 17.8441678 7.53056145 17.85040474 C4.14040031 17.85584513 0.75136145 17.83551848 -2.63867188 17.80810547 C-3.64501678 17.81463135 -4.65136169 17.82115723 -5.6882019 17.82788086 C-12.48978244 17.73419865 -12.48978244 17.73419865 -15.70701599 15.354599 C-18.03594272 11.90460246 -18.03594272 11.90460246 -18.11108398 9.2746582 C-16.1285461 2.88648056 -16.1285461 2.88648056 -13.12583923 1.08088684 C-8.74166697 -0.09156165 -4.51988181 -0.01173233 0 0 Z " fill="#1157C1" transform="translate(199.111083984375,612.725341796875)"/>
<path d="M0 0 C1.4375 1.5 1.4375 1.5 1.375 4.5 C0.55772474 9.83882411 -2.92631247 12.74380628 -6.5625 16.5 C-7.62519066 17.64585183 -8.68485179 18.79451753 -9.7421875 19.9453125 C-12.99618739 23.48220851 -16.2609121 27.00744209 -19.5625 30.5 C-20.45710937 31.45390625 -21.35171875 32.4078125 -22.2734375 33.390625 C-24.5625 35.5 -24.5625 35.5 -27.5625 36.0625 C-31.22157504 35.37642343 -32.91417676 34.07265686 -35.5625 31.5 C-37.67872986 27.26754029 -36.43222348 21.99264802 -35.5625 17.5 C-32.35671382 9.60222025 -25.68822591 4.76708916 -18.5625 0.5 C-12.85522998 -1.86162897 -5.56118713 -3.25532905 0 0 Z " fill="#0D58C1" transform="translate(588.5625,580.5)"/>
<path d="M0 0 C2.84804768 2.37337307 2.84804768 2.37337307 3.33203125 5.76953125 C2.8170954 10.04305872 1.76064729 11.20693982 -1.54467773 13.83666992 C-2.16930908 14.30306885 -2.79394043 14.76946777 -3.4375 15.25 C-9.56971627 20.10171792 -14.57984 25.2165121 -19.52734375 31.26171875 C-22.76615968 34.13038429 -24.84329279 34.49295951 -29.125 34.5625 C-32.0625 32.75 -32.0625 32.75 -34.125 29.5625 C-35.53515452 23.07349629 -33.91248035 17.643856 -30.7421875 11.95703125 C-23.7785808 1.64618364 -12.4601492 -5.73166863 0 0 Z " fill="#0D58C1" transform="translate(452.125,535.4375)"/>
<path d="M0 0 C1.04285156 -0.01675781 2.08570313 -0.03351563 3.16015625 -0.05078125 C5.9375 0.3125 5.9375 0.3125 7.80859375 1.45703125 C9.50122136 4.23903165 9.39549143 6.12291683 8.9375 9.3125 C7.25 11.296875 7.25 11.296875 4.9375 13.0625 C1.38956631 15.96434215 -1.45628809 18.86331119 -4.25 22.5 C-8.03333667 27.36964125 -11.18226522 31.25445457 -17.125 33.4375 C-20.0625 33.3125 -20.0625 33.3125 -22.9375 31.4375 C-25.34774962 27.89301526 -25.9242731 25.99098985 -25.671875 21.77734375 C-23.52570063 13.09634356 -15.56445428 5.76855952 -8.203125 1.14453125 C-5.39553903 0.05326152 -3.00619495 0.01117545 0 0 Z " fill="#0D58C1" transform="translate(667.0625,344.6875)"/>
<path d="M0 0 C2.5 1.625 2.5 1.625 4 4 C4.55549902 8.30773767 4.33109755 11.01316092 1.8046875 14.5 C0.84568318 15.68114188 -0.13171677 16.84753574 -1.125 18 C-1.62765381 18.6086792 -2.13030762 19.2173584 -2.64819336 19.84448242 C-4.08399595 21.57611646 -5.54012911 23.28866306 -7 25 C-7.65871094 25.80050781 -8.31742188 26.60101562 -8.99609375 27.42578125 C-12.1034068 31.16850495 -13.49191985 32.80450813 -18.375 33.4375 C-22 33 -22 33 -24.4375 30.5 C-26.26124565 26.41480975 -26.98686027 23.34064323 -26 19 C-21.64010423 8.45790828 -12.16325077 -3.05283172 0 0 Z " fill="#0D58C1" transform="translate(746,488)"/>
</svg>
