<svg width="20" height="20" viewBox="0 0 20 20" fill="none" xmlns="http://www.w3.org/2000/svg">
<path d="M10.0013 0C7.79191 0.00242633 5.6737 0.881179 4.11143 2.44346C2.54915 4.00573 1.6704 6.12394 1.66797 8.33333C1.66797 12.735 8.66797 18.7775 9.46297 19.4525L10.0013 19.9075L10.5396 19.4525C11.3346 18.7775 18.3346 12.735 18.3346 8.33333C18.3322 6.12394 17.4535 4.00573 15.8912 2.44346C14.3289 0.881179 12.2107 0.00242633 10.0013 0ZM10.0013 12.5C9.17721 12.5 8.37163 12.2556 7.68643 11.7978C7.00122 11.34 6.46717 10.6892 6.1518 9.92785C5.83644 9.16649 5.75392 8.32871 5.9147 7.52046C6.07547 6.7122 6.4723 5.96977 7.05502 5.38705C7.63774 4.80434 8.38017 4.4075 9.18843 4.24673C9.99668 4.08596 10.8345 4.16847 11.5958 4.48384C12.3572 4.7992 13.0079 5.33325 13.4658 6.01846C13.9236 6.70366 14.168 7.50924 14.168 8.33333C14.1666 9.438 13.7272 10.497 12.9461 11.2781C12.165 12.0593 11.106 12.4987 10.0013 12.5Z" fill="white"/>
</svg>
