<svg width="18" height="18" viewBox="0 0 18 18" fill="none" xmlns="http://www.w3.org/2000/svg">
<path d="M15.75 0H2.25C1.0095 0 0 1.10127 0 2.45455V18H18V2.45455C18 1.10127 16.9905 0 15.75 0ZM4.875 14.3182C4.254 14.3182 3.75 13.7684 3.75 13.0909C3.75 12.4135 4.254 11.8636 4.875 11.8636C5.496 11.8636 6 12.4135 6 13.0909C6 13.7684 5.496 14.3182 4.875 14.3182ZM4.875 10.2273C4.254 10.2273 3.75 9.67745 3.75 9C3.75 8.32255 4.254 7.77273 4.875 7.77273C5.496 7.77273 6 8.32255 6 9C6 9.67745 5.496 10.2273 4.875 10.2273ZM4.875 6.13636C4.254 6.13636 3.75 5.58655 3.75 4.90909C3.75 4.23164 4.254 3.68182 4.875 3.68182C5.496 3.68182 6 4.23164 6 4.90909C6 5.58655 5.496 6.13636 4.875 6.13636ZM14.25 13.9091H7.5V12.2727H14.25V13.9091ZM14.25 9.81818H7.5V8.18182H14.25V9.81818ZM14.25 5.72727H7.5V4.09091H14.25V5.72727Z" fill="#F7F7F7"/>
</svg>
